<svg xmlns="http://www.w3.org/2000/svg" viewBox="0 0 200 200" role="img" aria-labelledby="title desc">
  <title id="title">Magic Land park mark</title>
  <desc id="desc">A colorful circular amusement park mark with a ferris wheel, roller coaster, hot air balloon, carousel, clouds, and sparkles.</desc>
  <defs>
    <linearGradient id="magicLandRing" x1="28" y1="172" x2="172" y2="28" gradientUnits="userSpaceOnUse">
      <stop stop-color="#0F7AD7"/>
      <stop offset=".34" stop-color="#1F8BEA"/>
      <stop offset=".62" stop-color="#EF2B5A"/>
      <stop offset="1" stop-color="#FF8A00"/>
    </linearGradient>
    <linearGradient id="magicLandBalloon" x1="138" y1="33" x2="166" y2="88" gradientUnits="userSpaceOnUse">
      <stop stop-color="#EF2B5A"/>
      <stop offset=".47" stop-color="#FF8A00"/>
      <stop offset="1" stop-color="#FCD447"/>
    </linearGradient>
    <linearGradient id="magicLandTent" x1="139" y1="110" x2="177" y2="154" gradientUnits="userSpaceOnUse">
      <stop stop-color="#EF2B5A"/>
      <stop offset=".52" stop-color="#FF8A00"/>
      <stop offset="1" stop-color="#FCD447"/>
    </linearGradient>
    <filter id="magicLandShadow" x="-20%" y="-20%" width="140%" height="140%">
      <feDropShadow dx="0" dy="5" stdDeviation="4" flood-color="#030D46" flood-opacity=".12"/>
    </filter>
  </defs>
  <circle cx="100" cy="100" r="92" fill="#FFFFFF"/>
  <circle cx="100" cy="100" r="85" fill="none" stroke="url(#magicLandRing)" stroke-width="7"/>
  <clipPath id="magicLandClip">
    <circle cx="100" cy="100" r="82"/>
  </clipPath>
  <g clip-path="url(#magicLandClip)">
    <path d="M21 151h158" stroke="#DFF2FF" stroke-width="10" stroke-linecap="round"/>
    <path d="M23 142c21-14 47-14 76 1 19 10 43 12 77-4" fill="none" stroke="#EAF7FF" stroke-width="8" stroke-linecap="round"/>
    <g filter="url(#magicLandShadow)">
      <g transform="translate(29 35)">
        <circle cx="56" cy="55" r="43" fill="none" stroke="#4FB4F2" stroke-width="7"/>
        <circle cx="56" cy="55" r="7.5" fill="#FFB000" stroke="#0F4F9D" stroke-width="3.5"/>
        <path d="M56 12v86M13 55h86M25 24l62 62M87 24 25 86M40 16l32 78M72 16 40 94" stroke="#0F4F9D" stroke-width="3.2" stroke-linecap="round"/>
        <path d="M43 98h26l11 47H32z" fill="#0F4F9D"/>
        <g stroke="#0F4F9D" stroke-width="2.2">
          <circle cx="56" cy="12" r="8" fill="#9FD44E"/>
          <circle cx="86" cy="24" r="8" fill="#EF2B5A"/>
          <circle cx="99" cy="55" r="8" fill="#F04B23"/>
          <circle cx="86" cy="86" r="8" fill="#33B84A"/>
          <circle cx="56" cy="98" r="8" fill="#FCD447"/>
          <circle cx="25" cy="86" r="8" fill="#6D36A6"/>
          <circle cx="13" cy="55" r="8" fill="#EF2B5A"/>
          <circle cx="25" cy="24" r="8" fill="#FF8A00"/>
        </g>
        <path d="M20 20h10M51 8h10M81 20h10M94 50h10M81 82h10M51 94h10M20 82h10M8 50h10" stroke="#FFFFFF" stroke-width="2.4" stroke-linecap="round"/>
      </g>
      <g transform="translate(119 66)">
        <path d="M2 73c10-23 18-38 34-52 12-10 28-15 46-9" fill="none" stroke="#57B9F6" stroke-width="7" stroke-linecap="round"/>
        <path d="M2 73c10-23 18-38 34-52 12-10 28-15 46-9" fill="none" stroke="#0F7AD7" stroke-width="2.8" stroke-linecap="round"/>
        <path d="M25 41v29M49 18v44M73 10v49" stroke="#8ED2FF" stroke-width="3" stroke-linecap="round"/>
        <path d="M65 25c5 8 6 17 1 25" fill="none" stroke="#FFFFFF" stroke-width="2.4" stroke-linecap="round"/>
      </g>
      <g transform="translate(137 101)">
        <path d="M7 23l21-18 21 18H7Z" fill="url(#magicLandTent)" stroke="#0F4F9D" stroke-width="2"/>
        <path d="M16 23v34h24V23" fill="#FFFFFF" stroke="#0F4F9D" stroke-width="2"/>
        <path d="M28 5v52M7 23h42" stroke="#0F4F9D" stroke-width="2" stroke-linecap="round"/>
        <path d="M18 57h39" stroke="#0F7AD7" stroke-width="6" stroke-linecap="round"/>
        <circle cx="13" cy="55" r="5" fill="#FCD447" stroke="#0F4F9D" stroke-width="2"/>
        <circle cx="44" cy="55" r="5" fill="#33B84A" stroke="#0F4F9D" stroke-width="2"/>
        <path d="M53 38c8 12 15 13 21 5" fill="none" stroke="#EF2B5A" stroke-width="4" stroke-linecap="round"/>
        <circle cx="57" cy="33" r="3" fill="#0F4F9D"/>
        <circle cx="71" cy="36" r="3" fill="#0F4F9D"/>
      </g>
      <g transform="translate(135 30)">
        <path d="M17 55c15-9 25-23 22-37C36 6 21 2 10 10-1 18 1 37 17 55Z" fill="url(#magicLandBalloon)" stroke="#EF2B5A" stroke-width="1.5"/>
        <path d="M18 52c-3-15-2-31 0-47M8 18c8 7 22 7 31 0" stroke="#FFFFFF" stroke-width="3.2" stroke-linecap="round"/>
        <path d="M14 56h11l-3 10h-6z" fill="#8B4D20" stroke="#5F3417" stroke-width="1.4"/>
      </g>
    </g>
    <g fill="none" stroke-linecap="round" stroke-linejoin="round">
      <path d="M31 135c5-13 18-13 23 0h-23Z" fill="#FFFFFF" stroke="#4FB4F2" stroke-width="5"/>
      <path d="M19 142h50" stroke="#4FB4F2" stroke-width="5"/>
      <path d="M160 80c4-8 12-8 16 0h-16Z" fill="#FFFFFF" stroke="#4FB4F2" stroke-width="5"/>
      <path d="M153 87h35" stroke="#4FB4F2" stroke-width="5"/>
    </g>
    <g>
      <path d="M32 63l4 9 9 4-9 4-4 9-4-9-9-4 9-4z" fill="#FF5A1F"/>
      <path d="M117 32l3 7 7 3-7 3-3 7-3-7-7-3 7-3z" fill="#FF8A00"/>
      <path d="M126 77l3 6 6 3-6 3-3 6-3-6-6-3 6-3z" fill="#FCD447"/>
      <path d="M124 49c13 4 23-3 27-16" fill="none" stroke="#33B84A" stroke-width="4" stroke-linecap="round" stroke-dasharray="1 9"/>
      <path d="M130 34l-6 9M140 31v11M151 36l-9 6" stroke="#EF2B5A" stroke-width="3" stroke-linecap="round"/>
    </g>
  </g>
</svg>
