<svg xmlns="http://www.w3.org/2000/svg" viewBox="0 0 900 620" role="img" aria-labelledby="title desc">
  <title id="title">Seven colored stones fountain garden pond</title>
  <desc id="desc">A Magic Land garden pond concept with seven colorful stacked stone towers and fountain jets inspired by public colored boulder art.</desc>
  <defs>
    <linearGradient id="sky" x1="0" x2="0" y1="0" y2="620">
      <stop stop-color="#dff2ff"/>
      <stop offset=".58" stop-color="#fbf8ff"/>
      <stop offset="1" stop-color="#d8edff"/>
    </linearGradient>
    <filter id="shadow" x="-20%" y="-20%" width="140%" height="140%">
      <feDropShadow dx="0" dy="8" stdDeviation="10" flood-color="#030d46" flood-opacity=".16"/>
    </filter>
  </defs>
  <rect width="900" height="620" fill="url(#sky)"/>
  <ellipse cx="450" cy="480" rx="370" ry="88" fill="#bfe8ff"/>
  <ellipse cx="450" cy="480" rx="320" ry="56" fill="#8ed7ff" opacity=".78"/>
  <path d="M132 500c190 42 445 42 635-2" fill="none" stroke="#ffffff" stroke-width="14" opacity=".8"/>
  <g fill="none" stroke="#ffffff" stroke-linecap="round" opacity=".85">
    <path d="M372 459c-24-110 22-118 0-220" stroke-width="7"/>
    <path d="M450 459c0-136 0-139 0-252" stroke-width="8"/>
    <path d="M528 459c24-110-22-118 0-220" stroke-width="7"/>
  </g>
  <g filter="url(#shadow)">
    <g transform="translate(150 132)">
      <ellipse cx="38" cy="238" rx="44" ry="24" fill="#ff8a00"/>
      <ellipse cx="32" cy="194" rx="52" ry="28" fill="#1f8bea"/>
      <ellipse cx="48" cy="148" rx="45" ry="27" fill="#ef2b5a"/>
      <ellipse cx="24" cy="104" rx="43" ry="25" fill="#fcd447"/>
      <ellipse cx="44" cy="62" rx="40" ry="24" fill="#33b84a"/>
    </g>
    <g transform="translate(292 95)">
      <ellipse cx="40" cy="278" rx="50" ry="27" fill="#33b84a"/>
      <ellipse cx="52" cy="226" rx="43" ry="25" fill="#6d36a6"/>
      <ellipse cx="29" cy="181" rx="48" ry="26" fill="#ff8a00"/>
      <ellipse cx="45" cy="135" rx="42" ry="24" fill="#1f8bea"/>
      <ellipse cx="32" cy="92" rx="44" ry="24" fill="#ef2b5a"/>
      <ellipse cx="50" cy="52" rx="36" ry="23" fill="#fcd447"/>
    </g>
    <g transform="translate(448 116)">
      <ellipse cx="36" cy="260" rx="48" ry="26" fill="#fcd447"/>
      <ellipse cx="54" cy="212" rx="42" ry="25" fill="#ef2b5a"/>
      <ellipse cx="30" cy="168" rx="47" ry="25" fill="#33b84a"/>
      <ellipse cx="50" cy="124" rx="43" ry="24" fill="#ff8a00"/>
      <ellipse cx="34" cy="82" rx="39" ry="23" fill="#1f8bea"/>
    </g>
    <g transform="translate(606 148)">
      <ellipse cx="38" cy="232" rx="48" ry="26" fill="#6d36a6"/>
      <ellipse cx="26" cy="185" rx="44" ry="25" fill="#fcd447"/>
      <ellipse cx="50" cy="142" rx="42" ry="24" fill="#ef2b5a"/>
      <ellipse cx="33" cy="100" rx="38" ry="23" fill="#33b84a"/>
    </g>
  </g>
  <g fill="#0f1842">
    <text x="64" y="72" font-family="Quicksand, Arial, sans-serif" font-size="38" font-weight="800">Seven Color Garden Pond</text>
    <text x="65" y="112" font-family="Plus Jakarta Sans, Arial, sans-serif" font-size="20" font-weight="700">Colored stone towers, fountain jets, and a photo-friendly garden moment.</text>
  </g>
</svg>
